<?xml version="1.0" encoding="UTF-8"?>
<svg version="1.1" xmlns="http://www.w3.org/2000/svg" width="96" height="96">
<path d="M0 0 C0.89267578 -0.00386719 1.78535156 -0.00773438 2.70507812 -0.01171875 C3.98995117 -0.00978516 3.98995117 -0.00978516 5.30078125 -0.0078125 C6.45767456 -0.00612061 6.45767456 -0.00612061 7.63793945 -0.00439453 C9.6875 0.125 9.6875 0.125 12.6875 1.125 C13.1825 6.57 13.1825 6.57 13.6875 12.125 C15.00105469 12.10179687 16.31460938 12.07859375 17.66796875 12.0546875 C19.40364013 12.03592349 21.13931768 12.01772396 22.875 12 C23.73931641 11.98324219 24.60363281 11.96648438 25.49414062 11.94921875 C33.78050742 11.88572169 33.78050742 11.88572169 37.6875 14.125 C39.21365769 17.17731538 38.92792618 20.39231895 39.00390625 23.74609375 C39.02491394 24.51406281 39.04592163 25.28203186 39.06756592 26.07327271 C39.13403004 28.56957568 39.19289394 31.06596633 39.25 33.5625 C39.26984955 34.40424774 39.2896991 35.24599548 39.31015015 36.11325073 C39.40802398 40.28991794 39.50055451 44.46665442 39.58789062 48.64355469 C39.66613014 52.31792147 39.77325044 55.99071789 39.890625 59.6640625 C39.92860718 61.33850779 39.96525471 63.01298441 40 64.6875 C40.029729 65.41573975 40.05945801 66.14397949 40.09008789 66.89428711 C40.12618561 69.9831116 39.94756064 71.76743013 38.10887146 74.29553223 C34.8076507 76.78977034 32.63545564 76.63242995 28.51977539 76.64257812 C27.44830009 76.65309204 27.44830009 76.65309204 26.35517883 76.66381836 C23.99810703 76.68139759 21.64223989 76.66977576 19.28515625 76.65625 C17.64375071 76.65894526 16.00234673 76.66282797 14.36094666 76.66784668 C10.92187286 76.67374184 7.48321488 76.66517966 4.04418945 76.64648438 C-0.35883978 76.62371236 -4.76089278 76.63680603 -9.16388607 76.66077423 C-12.55346495 76.67524732 -15.94281345 76.67061907 -19.33239937 76.66026306 C-20.95547158 76.657599 -22.57856487 76.66085429 -24.20161247 76.67018127 C-26.47342962 76.6803703 -28.74368005 76.66481478 -31.01538086 76.64257812 C-32.30681503 76.63939575 -33.59824921 76.63621338 -34.92881775 76.63293457 C-38.87125233 76.04112403 -40.53534443 74.93526141 -43.3125 72.125 C-44.01293945 69.8059082 -44.01293945 69.8059082 -44.11328125 67.11328125 C-44.1592041 66.05189941 -44.20512695 64.99051758 -44.25244141 63.89697266 C-44.27226074 62.65222168 -44.29208008 61.4074707 -44.3125 60.125 C-44.32794861 59.40358826 -44.34339722 58.68217651 -44.35931396 57.93890381 C-44.46307915 52.93946307 -44.49827099 47.94209902 -44.49780273 42.94165039 C-44.50001033 40.30013392 -44.51829254 37.65902228 -44.53710938 35.01757812 C-44.54004061 33.31770974 -44.54202721 31.6178394 -44.54296875 29.91796875 C-44.55015427 29.13866501 -44.55733978 28.35936127 -44.56474304 27.55644226 C-44.51816813 16.33066813 -44.51816813 16.33066813 -41.3125 13.125 C-39.67777118 13.03799658 -38.03935945 13.01798937 -36.40234375 13.02734375 C-35.41298828 13.03056641 -34.42363281 13.03378906 -33.40429688 13.03710938 C-32.36337891 13.04548828 -31.32246094 13.05386719 -30.25 13.0625 C-28.68282227 13.06926758 -28.68282227 13.06926758 -27.08398438 13.07617188 C-24.4934334 13.08800087 -21.90299441 13.10448311 -19.3125 13.125 C-19.40789063 12.51011719 -19.50328125 11.89523438 -19.6015625 11.26171875 C-19.71242188 10.45347656 -19.82328125 9.64523438 -19.9375 8.8125 C-20.11152344 7.61173828 -20.11152344 7.61173828 -20.2890625 6.38671875 C-20.3125 4.125 -20.3125 4.125 -18.3125 1.125 C-12.24247716 -0.06039167 -6.16822131 -0.02731316 0 0 Z M-10.3125 9.125 C-10.3125 10.445 -10.3125 11.765 -10.3125 13.125 C-5.6925 12.795 -1.0725 12.465 3.6875 12.125 C3.6875 11.135 3.6875 10.145 3.6875 9.125 C-0.9325 9.125 -5.5525 9.125 -10.3125 9.125 Z " fill="#C26327" transform="translate(51.3125,8.875)"/>
<path d="M0 0 C0.89267578 -0.00386719 1.78535156 -0.00773438 2.70507812 -0.01171875 C3.98995117 -0.00978516 3.98995117 -0.00978516 5.30078125 -0.0078125 C6.45767456 -0.00612061 6.45767456 -0.00612061 7.63793945 -0.00439453 C9.6875 0.125 9.6875 0.125 12.6875 1.125 C13.1825 6.57 13.1825 6.57 13.6875 12.125 C15.00105469 12.10179687 16.31460938 12.07859375 17.66796875 12.0546875 C19.40364013 12.03592349 21.13931768 12.01772396 22.875 12 C23.73931641 11.98324219 24.60363281 11.96648438 25.49414062 11.94921875 C33.78050742 11.88572169 33.78050742 11.88572169 37.6875 14.125 C39.21365769 17.17731538 38.92792618 20.39231895 39.00390625 23.74609375 C39.02491394 24.51406281 39.04592163 25.28203186 39.06756592 26.07327271 C39.13403004 28.56957568 39.19289394 31.06596633 39.25 33.5625 C39.26984955 34.40424774 39.2896991 35.24599548 39.31015015 36.11325073 C39.40802398 40.28991794 39.50055451 44.46665442 39.58789062 48.64355469 C39.66613014 52.31792147 39.77325044 55.99071789 39.890625 59.6640625 C39.92860718 61.33850779 39.96525471 63.01298441 40 64.6875 C40.029729 65.41573975 40.05945801 66.14397949 40.09008789 66.89428711 C40.12618561 69.9831116 39.94756064 71.76743013 38.10887146 74.29553223 C34.8076507 76.78977034 32.63545564 76.63242995 28.51977539 76.64257812 C27.44830009 76.65309204 27.44830009 76.65309204 26.35517883 76.66381836 C23.99810703 76.68139759 21.64223989 76.66977576 19.28515625 76.65625 C17.64375071 76.65894526 16.00234673 76.66282797 14.36094666 76.66784668 C10.92187286 76.67374184 7.48321488 76.66517966 4.04418945 76.64648438 C-0.35883978 76.62371236 -4.76089278 76.63680603 -9.16388607 76.66077423 C-12.55346495 76.67524732 -15.94281345 76.67061907 -19.33239937 76.66026306 C-20.95547158 76.657599 -22.57856487 76.66085429 -24.20161247 76.67018127 C-26.47342962 76.6803703 -28.74368005 76.66481478 -31.01538086 76.64257812 C-32.30681503 76.63939575 -33.59824921 76.63621338 -34.92881775 76.63293457 C-38.87125233 76.04112403 -40.53534443 74.93526141 -43.3125 72.125 C-44.01293945 69.8059082 -44.01293945 69.8059082 -44.11328125 67.11328125 C-44.1592041 66.05189941 -44.20512695 64.99051758 -44.25244141 63.89697266 C-44.27226074 62.65222168 -44.29208008 61.4074707 -44.3125 60.125 C-44.32794861 59.40358826 -44.34339722 58.68217651 -44.35931396 57.93890381 C-44.46307915 52.93946307 -44.49827099 47.94209902 -44.49780273 42.94165039 C-44.50001033 40.30013392 -44.51829254 37.65902228 -44.53710938 35.01757812 C-44.54004061 33.31770974 -44.54202721 31.6178394 -44.54296875 29.91796875 C-44.55015427 29.13866501 -44.55733978 28.35936127 -44.56474304 27.55644226 C-44.51816813 16.33066813 -44.51816813 16.33066813 -41.3125 13.125 C-39.67777118 13.03799658 -38.03935945 13.01798937 -36.40234375 13.02734375 C-35.41298828 13.03056641 -34.42363281 13.03378906 -33.40429688 13.03710938 C-32.36337891 13.04548828 -31.32246094 13.05386719 -30.25 13.0625 C-28.68282227 13.06926758 -28.68282227 13.06926758 -27.08398438 13.07617188 C-24.4934334 13.08800087 -21.90299441 13.10448311 -19.3125 13.125 C-19.40789063 12.51011719 -19.50328125 11.89523438 -19.6015625 11.26171875 C-19.71242188 10.45347656 -19.82328125 9.64523438 -19.9375 8.8125 C-20.11152344 7.61173828 -20.11152344 7.61173828 -20.2890625 6.38671875 C-20.3125 4.125 -20.3125 4.125 -18.3125 1.125 C-12.24247716 -0.06039167 -6.16822131 -0.02731316 0 0 Z M-10.3125 9.125 C-10.3125 10.445 -10.3125 11.765 -10.3125 13.125 C-5.6925 12.795 -1.0725 12.465 3.6875 12.125 C3.6875 11.135 3.6875 10.145 3.6875 9.125 C-0.9325 9.125 -5.5525 9.125 -10.3125 9.125 Z M-41.3125 17.125 C-41.62570327 19.44836905 -41.62570327 19.44836905 -41.5871582 22.16967773 C-41.59669022 23.22094345 -41.60622223 24.27220917 -41.61604309 25.35533142 C-41.61513168 26.49490799 -41.61422028 27.63448456 -41.61328125 28.80859375 C-41.61756638 29.97503922 -41.6218515 31.14148468 -41.62626648 32.34327698 C-41.63201802 34.81388702 -41.63250402 37.28451401 -41.62817383 39.75512695 C-41.6250159 43.54342442 -41.64845686 47.33093992 -41.67382812 51.11914062 C-41.67610115 53.51562401 -41.6768046 55.91210951 -41.67578125 58.30859375 C-41.684991 59.44614609 -41.69420074 60.58369843 -41.70368958 61.75572205 C-41.69746078 62.81013992 -41.69123199 63.8645578 -41.68481445 64.95092773 C-41.68544388 65.8797728 -41.6860733 66.80861786 -41.6867218 67.76560974 C-41.46126602 70.12792417 -41.46126602 70.12792417 -40.24081421 71.92709351 C-37.31841007 73.7425481 -34.42029707 73.51763938 -31.0871582 73.46557617 C-30.35520233 73.46601425 -29.62324646 73.46645233 -28.86911011 73.46690369 C-26.45022895 73.46481398 -24.03204129 73.44147515 -21.61328125 73.41796875 C-19.93605427 73.41237342 -18.25882238 73.40810303 -16.58158875 73.40510559 C-12.16737325 73.39365178 -7.75345395 73.36418011 -3.33935547 73.33099365 C1.1649983 73.30030425 5.66939994 73.28660268 10.17382812 73.27148438 C19.01184887 73.23931083 27.84964981 73.18810808 36.6875 73.125 C36.7337955 65.85807672 36.76935493 58.59118512 36.79112434 51.32414436 C36.80157142 47.94993006 36.81574725 44.57581648 36.83837891 41.20166016 C36.86254885 37.32451682 36.87396511 33.44751723 36.8828125 29.5703125 C36.89313507 28.35570343 36.90345764 27.14109436 36.91409302 25.88967896 C36.91424408 24.76866791 36.91439514 23.64765686 36.91455078 22.49267578 C36.918992 21.50228302 36.92343323 20.51189026 36.92800903 19.4914856 C36.9201657 16.93634097 36.9201657 16.93634097 34.6875 15.125 C31.5025933 14.81675341 31.5025933 14.81675341 27.69921875 14.86621094 C26.98037506 14.8627063 26.26153137 14.85920166 25.52090454 14.85559082 C23.13883884 14.84677035 20.75706885 14.85262364 18.375 14.859375 C16.72355085 14.85802844 15.07210209 14.85608798 13.4206543 14.85357666 C9.95715567 14.85062497 6.4937601 14.85492443 3.03027344 14.86425781 C-1.41545311 14.87565242 -5.8609382 14.86909318 -10.30665588 14.85711288 C-13.71750721 14.84989546 -17.12830102 14.85218166 -20.53915405 14.85736847 C-22.17866036 14.85870529 -23.81817185 14.8570561 -25.45767212 14.85240936 C-27.74666226 14.847346 -30.03525808 14.85505138 -32.32421875 14.86621094 C-33.62834717 14.86780212 -34.93247559 14.86939331 -36.27612305 14.87103271 C-39.42317419 14.80520182 -39.42317419 14.80520182 -41.3125 17.125 Z " fill="#040201" transform="translate(51.3125,8.875)"/>
<path d="M0 0 C4.0329527 3.49522567 5.24091626 5.82269703 5.75 11.125 C5.80414063 12.36636719 5.80414063 12.36636719 5.859375 13.6328125 C5.9930754 15.88343595 6.38228469 17.83799643 7 20 C6.34 20.33 5.68 20.66 5 21 C4.525625 21.99 4.05125 22.98 3.5625 24 C2 27 2 27 -1 28 C-0.57969369 31.72985576 -0.57969369 31.72985576 1 35 C3.5147722 36.33463166 5.9591758 37.17545449 8.6875 37.98046875 C11.50825818 39.22408004 11.791332 40.26428485 13 43 C6.26123247 43.86483156 -0.33375399 44.18285482 -7.125 44.1875 C-8.07503906 44.19974609 -9.02507813 44.21199219 -10.00390625 44.22460938 C-15.40848395 44.2358533 -19.89182295 43.78998448 -25 42 C-24.7734375 40.09765625 -24.7734375 40.09765625 -24 38 C-22.0390625 37.05859375 -22.0390625 37.05859375 -19.625 36.4375 C-16.25077888 35.55272866 -14.17841041 34.80584901 -12 32 C-12.12106337 27.52065523 -14.37187452 24.5041673 -17 21 C-17.66 20.67 -18.32 20.34 -19 20 C-18.7525 18.7315625 -18.7525 18.7315625 -18.5 17.4375 C-17.87379745 13.98851332 -17.87379745 13.98851332 -18.25 10.4375 C-18 7 -18 7 -15.9375 4.25 C-10.9047426 0.39512199 -6.27015742 -2.31723209 0 0 Z " fill="#CFDEDE" transform="translate(55,32)"/>
<path d="M0 0 C2.35171131 0.59861742 4.6859378 1.26924352 7 2 C8.52615769 5.05231538 8.24042618 8.26731895 8.31640625 11.62109375 C8.34791779 12.77304733 8.34791779 12.77304733 8.38006592 13.94827271 C8.44653004 16.44457568 8.50539394 18.94096633 8.5625 21.4375 C8.58234955 22.27924774 8.6021991 23.12099548 8.62265015 23.98825073 C8.72052398 28.16491794 8.81305451 32.34165442 8.90039062 36.51855469 C8.97863014 40.19292147 9.08575044 43.86571789 9.203125 47.5390625 C9.24110718 49.21350779 9.27775471 50.88798441 9.3125 52.5625 C9.342229 53.29073975 9.37195801 54.01897949 9.40258789 54.76928711 C9.43868561 57.8581116 9.26006064 59.64243013 7.42137146 62.17053223 C4.1201507 64.66477034 1.94795564 64.50742995 -2.16772461 64.51757812 C-3.23919991 64.52809204 -3.23919991 64.52809204 -4.33232117 64.53881836 C-6.68939297 64.55639759 -9.04526011 64.54477576 -11.40234375 64.53125 C-13.04374929 64.53394526 -14.68515327 64.53782797 -16.32655334 64.54284668 C-19.76562714 64.54874184 -23.20428512 64.54017966 -26.64331055 64.52148438 C-31.04633978 64.49871236 -35.44839278 64.51180603 -39.85138607 64.53577423 C-43.24096495 64.55024732 -46.63031345 64.54561907 -50.01989937 64.53526306 C-51.64297158 64.532599 -53.26606487 64.53585429 -54.88911247 64.54518127 C-57.16092962 64.5553703 -59.43118005 64.53981478 -61.70288086 64.51757812 C-62.99431503 64.51439575 -64.28574921 64.51121338 -65.61631775 64.50793457 C-69.55883269 63.91611197 -71.22270499 62.81021549 -74 60 C-74.70483398 57.67871094 -74.70483398 57.67871094 -74.80859375 54.984375 C-74.85483887 53.92412109 -74.90108398 52.86386719 -74.94873047 51.77148438 C-74.96564941 50.52689453 -74.98256836 49.28230469 -75 48 C-75.01073547 47.27562744 -75.02147095 46.55125488 -75.03253174 45.80493164 C-75.1086343 39.95281266 -75.09152098 34.10238079 -75.0625 28.25 C-75.05747286 26.4739596 -75.05291211 24.69791782 -75.04882812 22.921875 C-75.03792357 18.61454852 -75.02072652 14.30728995 -75 10 C-74.01 10 -73.02 10 -72 10 C-71.99191315 10.59690643 -71.98382629 11.19381287 -71.97549438 11.80880737 C-71.88962803 18.0054097 -71.79013307 24.20168548 -71.68261719 30.39794922 C-71.64426599 32.71234669 -71.6094241 35.02680502 -71.578125 37.34130859 C-71.5326076 40.66265664 -71.47459157 43.98358341 -71.4140625 47.3046875 C-71.39673569 48.86411575 -71.39673569 48.86411575 -71.37905884 50.45504761 C-71.35918915 51.41589264 -71.33931946 52.37673767 -71.31884766 53.36669922 C-71.30552399 54.21497284 -71.29220032 55.06324646 -71.2784729 55.93722534 C-71.18223842 58.22186119 -71.18223842 58.22186119 -69 60 C-66.59320759 60.21705637 -64.29780197 60.31134857 -61.88818359 60.31884766 C-60.79046883 60.33391609 -60.79046883 60.33391609 -59.670578 60.34928894 C-57.24653932 60.38023236 -54.82261162 60.39718674 -52.3984375 60.4140625 C-50.71976763 60.43276521 -49.04110725 60.45233794 -47.36245728 60.4727478 C-42.94020165 60.52416995 -38.51791551 60.56374152 -34.09552002 60.60089111 C-28.79156402 60.64789407 -23.4877606 60.70953489 -18.18392944 60.76873779 C-10.12268088 60.85707291 -2.06146337 60.92674902 6 61 C5.67 42.52 5.34 24.04 5 5 C3.02 4.01 1.04 3.02 -1 2 C-0.67 1.34 -0.34 0.68 0 0 Z " fill="#0D0602" transform="translate(82,21)"/>
<path d="M0 0 C4.36801011 4.58108377 5.57947853 9.41775747 5.859375 15.60546875 C5.91233184 18.04673076 5.91233184 18.04673076 6.73046875 20.48046875 C7.11265797 24.05310711 5.74104966 25.34766769 3.5625 28.125 C0.61906496 31.64069345 0.61906496 31.64069345 0 36 C1.03060547 36.38091797 1.03060547 36.38091797 2.08203125 36.76953125 C2.98308594 37.11371094 3.88414063 37.45789063 4.8125 37.8125 C5.70582031 38.14894531 6.59914062 38.48539063 7.51953125 38.83203125 C9.94978528 39.97635559 11.38741441 40.86441368 13 43 C12.6875 45.6875 12.6875 45.6875 12 48 C5.33207175 49.00058947 -1.20033516 49.18331282 -7.9375 49.1875 C-8.97068359 49.19974609 -10.00386719 49.21199219 -11.06835938 49.22460938 C-17.367197 49.23657677 -22.90653707 48.60755591 -29 47 C-29.25 44.1875 -29.25 44.1875 -29 41 C-25.86678633 37.32187961 -20.49130527 36.35314967 -16 35 C-16.59319211 31.56252776 -17.83033438 29.83283293 -20.125 27.25 C-22.93600254 23.63393706 -22.93600254 23.63393706 -23.20703125 20.94921875 C-22.93478834 18.9172608 -22.48751816 16.99003314 -22 15 C-21.938125 13.783125 -21.87625 12.56625 -21.8125 11.3125 C-20.74906187 6.97694454 -18.67160275 5.22590917 -15 3 C-5.34636872 -2.4301676 -5.34636872 -2.4301676 0 0 Z M-18 7 C-20.12213472 10.18320208 -20.21459267 10.8298618 -20.0625 14.4375 C-19.94258939 17.51868128 -20.12848156 20.03413491 -21 23 C-20.01 23.66 -19.02 24.32 -18 25 C-15.74597864 28.20764579 -14.20832625 31.04180121 -14 35 C-16.68759173 38.48165292 -19.94624369 39.00558697 -24.0390625 40.05859375 C-26.21049438 40.82111561 -26.21049438 40.82111561 -26.7734375 43.09765625 C-26.84820313 43.72542969 -26.92296875 44.35320312 -27 45 C-20.96237232 47.1156784 -15.48824493 47.26952283 -9.125 47.1875 C-8.18269531 47.18685547 -7.24039063 47.18621094 -6.26953125 47.18554688 C-0.44118898 47.14927089 5.21927846 46.74187905 11 46 C9.64979509 42.74418245 9.64979509 42.74418245 6.6875 40.98046875 C5.800625 40.71878906 4.91375 40.45710938 4 40.1875 C-0.69326952 38.50360359 -0.69326952 38.50360359 -2.1015625 36.19140625 C-2.625 34.25 -2.625 34.25 -3 31 C-2.38125 30.773125 -1.7625 30.54625 -1.125 30.3125 C1.62260139 28.61545208 1.93210179 26.97485929 3 24 C3.66 23.67 4.32 23.34 5 23 C4.49768799 13.57160362 4.49768799 13.57160362 0.75 5.1875 C-5.96654392 -0.15520539 -11.41481357 2.68883478 -18 7 Z " fill="#231810" transform="translate(57,29)"/>
<path d="M0 0 C5.04964255 5.29596658 5.65105044 10.98491066 6 18 C6.3011022 19.67278999 6.61378392 21.34478822 7 23 C6.01 23.66 5.02 24.32 4 25 C3.67 24.34 3.34 23.68 3 23 C3.66 23 4.32 23 5 23 C4.67773438 22.44183594 4.35546875 21.88367188 4.0234375 21.30859375 C2.88691847 18.74491914 2.73671633 16.85111136 2.625 14.0625 C2.32748199 10.64356422 2.0062017 9.01125493 0.3125 5.9375 C-2.66084728 3.44631715 -4.10681607 2.92513108 -8 3 C-10.19764864 3.8856196 -12.20923439 4.91419408 -14.265625 6.08984375 C-16 7 -16 7 -18 7 C-19.1538423 10.46152691 -18.99225631 13.14306072 -18.83984375 16.74609375 C-19.01926303 19.27109187 -19.73843496 20.8281292 -21 23 C-20.401875 23.226875 -19.80375 23.45375 -19.1875 23.6875 C-15.64042635 25.81574419 -14.44960754 28.77107271 -13.0625 32.5625 C-13 35 -13 35 -14.5625 37.3125 C-17.58388508 39.40422813 -19.39991481 39.32728047 -23 39 C-20.77810176 36.77810176 -18.91517292 36.07401108 -16 35 C-16.59319211 31.56252776 -17.83033438 29.83283293 -20.125 27.25 C-22.93600254 23.63393706 -22.93600254 23.63393706 -23.20703125 20.94921875 C-22.93478834 18.9172608 -22.48751816 16.99003314 -22 15 C-21.938125 13.783125 -21.87625 12.56625 -21.8125 11.3125 C-20.74906187 6.97694454 -18.67160275 5.22590917 -15 3 C-5.34636872 -2.4301676 -5.34636872 -2.4301676 0 0 Z " fill="#16100C" transform="translate(57,29)"/>
<path d="M0 0 C1.12591553 0.00523682 2.25183105 0.01047363 3.41186523 0.01586914 C4.62680664 0.0190918 5.84174805 0.02231445 7.09350586 0.02563477 C8.37290039 0.03401367 9.65229492 0.04239258 10.97045898 0.05102539 C12.2537207 0.05553711 13.53698242 0.06004883 14.85913086 0.06469727 C18.04211921 0.07652994 21.22501661 0.09301471 24.40795898 0.11352539 C24.40795898 3.41352539 24.40795898 6.71352539 24.40795898 10.11352539 C23.08795898 10.11352539 21.76795898 10.11352539 20.40795898 10.11352539 C20.07795898 8.46352539 19.74795898 6.81352539 19.40795898 5.11352539 C13.46795898 5.11352539 7.52795898 5.11352539 1.40795898 5.11352539 C1.07795898 6.76352539 0.74795898 8.41352539 0.40795898 10.11352539 C-0.91204102 10.11352539 -2.23204102 10.11352539 -3.59204102 10.11352539 C-3.61893318 8.63445647 -3.63838723 7.15525056 -3.65454102 5.67602539 C-3.66614258 4.85231445 -3.67774414 4.02860352 -3.68969727 3.17993164 C-3.54235796 0.06223196 -3.13783134 0.13742974 0 0 Z " fill="#4E341E" transform="translate(37.592041015625,11.886474609375)"/>
<path d="M0 0 C1.32 0.66 2.64 1.32 4 2 C2.7934375 2.4021875 2.7934375 2.4021875 1.5625 2.8125 C0.716875 3.204375 -0.12875 3.59625 -1 4 C-1.33 4.99 -1.66 5.98 -2 7 C0.31 7.33 2.62 7.66 5 8 C5 8.66 5 9.32 5 10 C-1.75 10.125 -1.75 10.125 -4 9 C-4.25 6.1875 -4.25 6.1875 -4 3 C-2 1.125 -2 1.125 0 0 Z " fill="#231A14" transform="translate(32,67)"/>
<path d="M0 0 C0.33 0 0.66 0 1 0 C2.47075246 4.41225737 3.36884358 7.48281619 2 12 C1.01 12 0.02 12 -1 12 C-0.34 11.67 0.32 11.34 1 11 C0.649375 10.484375 0.29875 9.96875 -0.0625 9.4375 C-1.3615641 6.05993333 -0.67217681 3.49531943 0 0 Z " fill="#0F0A07" transform="translate(61,41)"/>
<path d="M0 0 C2.59060578 0.35732494 3.84567494 0.8616396 5.8125 2.625 C7.49565719 5.99131438 6.76115885 8.4017945 6 12 C5.67 12 5.34 12 5 12 C4.731875 10.7625 4.46375 9.525 4.1875 8.25 C3.36118005 4.89716221 2.37328726 2.58904064 0 0 Z " fill="#1C1713" transform="translate(55,32)"/>
</svg>
